<svg width="60" height="34" viewBox="0 0 60 34" fill="none" xmlns="http://www.w3.org/2000/svg">
<g clip-path="url(#clip0_54_7)">
<path d="M60 17.3182C60 22.0152 58.5877 25.9697 55.7631 29.1818C52.9385 32.3939 49.4457 34 45.2847 34C38.7851 34 33.6826 30.3788 29.9772 23.1364C25.9985 30.0758 20.9415 33.5455 14.8064 33.5455C10.4024 33.5455 6.83371 32 4.10023 28.9091C1.36674 25.7879 0 21.7121 0 16.6818C0 11.8636 1.39711 7.87879 4.19134 4.72727C7.01595 1.57576 10.5543 0 14.8064 0C17.9347 0 20.7441 0.848485 23.2346 2.54545C25.7555 4.21212 28.003 6.98485 29.9772 10.8636C33.8345 3.89394 38.7547 0.409091 44.738 0.409091C49.3546 0.409091 53.0448 1.95455 55.8087 5.04545C58.6029 8.10606 60 12.197 60 17.3182ZM44.1913 8.27273C40.5467 8.27273 37.2969 11.2576 34.4419 17.2273C35.7783 20.0758 37.1906 22.2727 38.6788 23.8182C40.1974 25.3636 42.0197 26.1364 44.1458 26.1364C46.2415 26.1364 47.9575 25.303 49.2938 23.6364C50.6606 21.9697 51.344 19.8333 51.344 17.2273C51.344 14.5606 50.691 12.4091 49.385 10.7727C48.079 9.10606 46.3478 8.27273 44.1913 8.27273ZM25.467 16.7727C23.8573 13.3485 22.369 11 21.0023 9.72727C19.6355 8.42424 18.041 7.77273 16.2187 7.77273C14.0623 7.77273 12.2551 8.62121 10.7973 10.3182C9.36978 11.9848 8.65604 14.1364 8.65604 16.7727C8.65604 19.3182 9.33941 21.4394 10.7062 23.1364C12.0729 24.803 13.9256 25.6364 16.2642 25.6364C18.0562 25.6364 19.6811 24.9242 21.139 23.5C22.5968 22.0455 24.0395 19.803 25.467 16.7727Z" fill="black"/>
</g>
<defs>
<clipPath id="clip0_54_7">
<rect width="60" height="34" fill="white"/>
</clipPath>
</defs>
</svg>
